<?xml version="1.0" encoding="utf-8"?>
<svg version="1.1" xmlns:xlink="http://www.w3.org/1999/xlink" width="51px" height="36px" xmlns="http://www.w3.org/2000/svg">
  <g transform="matrix(1 0 0 1 -1307 -12 )">
    <path d="M 21 10.257142857142856  L 21 24.62857142857143  L 34 17.485714285714288  L 21 10.257142857142856  Z M 7.675585284280937 0.5142857142857125  C 12.432552954292087 0.17142857142857082  18.374024526198436 0  25.5 0  C 28.683946488294314 0  31.75891861761427 0.042857142857142705  34.724916387959865 0.12857142857142811  C 37.69091415830547 0.21428571428571352  39.865663322185064 0.30476190476190235  41.24916387959866 0.3999999999999986  L 43.324414715719065 0.5142857142857125  C 43.34336677814939 0.5142857142857125  43.504459308807135 0.5285714285714267  43.80769230769231 0.5571428571428552  C 44.110925306577485 0.5857142857142876  44.32887402452621 0.6142857142857161  44.46153846153846 0.6428571428571446  C 44.594202898550726 0.671428571428573  44.81688963210703 0.7142857142857157  45.12959866220736 0.7714285714285727  C 45.44230769230769 0.8285714285714296  45.7123745819398 0.9047619047619002  45.93979933110368 1.0000000000000004  C 46.16722408026756 1.0952380952380927  46.43255295429209 1.2190476190476134  46.735785953177256 1.3714285714285706  C 47.039018952062435 1.5238095238095197  47.33277591973245 1.7095238095238088  47.61705685618729 1.9285714285714297  C 47.901337792642146 2.1476190476190427  48.176142697881836 2.3999999999999995  48.441471571906355 2.685714285714284  C 48.55518394648829 2.799999999999998  48.7020624303233 2.9761904761904723  48.88210702341137 3.214285714285715  C 49.06215161649945 3.4523809523809494  49.33695652173913 4.009523809523809  49.70652173913044 4.885714285714284  C 50.07608695652175 5.761904761904756  50.32720178372353 6.723809523809521  50.45986622073578 7.771428571428572  C 50.61148272017838 8.990476190476189  50.729933110367895 10.290476190476188  50.815217391304344 11.67142857142857  C 50.90050167224081 13.05238095238095  50.9526198439242 14.13333333333333  50.97157190635451 14.914285714285713  L 50.97157190635451 16.057142857142857  L 50.97157190635451 19.942857142857143  C 50.99052396878484 22.7047619047619  50.81995540691193 25.466666666666665  50.45986622073578 28.228571428571428  C 50.32720178372353 29.27619047619048  50.09030100334449 30.22380952380952  49.74916387959866 31.071428571428573  C 49.40802675585285 31.91904761904762  49.10479375696767 32.50476190476191  48.83946488294314 32.82857142857143  L 48.441471571906355 33.31428571428572  C 48.176142697881836 33.6  47.901337792642146 33.85238095238095  47.61705685618729 34.07142857142857  C 47.33277591973245 34.29047619047619  47.039018952062435 34.471428571428575  46.735785953177256 34.614285714285714  C 46.43255295429209 34.75714285714286  46.16722408026756 34.87619047619048  45.93979933110368 34.97142857142857  C 45.7123745819398 35.06666666666666  45.44230769230769 35.14285714285714  45.12959866220736 35.199999999999996  C 44.81688963210703 35.25714285714285  44.58946488294314 35.3  44.447324414715716 35.32857142857143  C 44.3051839464883 35.357142857142854  44.087235228539576 35.385714285714286  43.79347826086957 35.41428571428571  C 43.499721293199556 35.44285714285714  43.34336677814939 35.457142857142856  43.324414715719065 35.457142857142856  C 38.567447045707915 35.81904761904762  32.62597547380156 36  25.5 36  C 21.576923076923077 35.96190476190476  18.170289855072465 35.9  15.280100334448159 35.81428571428572  C 12.389910813823857 35.72857142857143  10.489966555183946 35.65714285714286  9.580267558528428 35.6  L 8.187290969899665 35.48571428571429  L 7.163879598662207 35.37142857142857  C 6.481605351170568 35.27619047619048  5.965161649944259 35.18095238095238  5.614548494983278 35.08571428571428  C 5.263935340022297 34.990476190476194  4.780657748049053 34.79047619047619  4.164715719063545 34.48571428571429  C 3.548773690078038 34.18095238095238  3.0133779264214047 33.79047619047619  2.5585284280936453 33.31428571428572  C 2.4448160535117056 33.2  2.2979375696767 33.023809523809526  2.117892976588629 32.785714285714285  C 1.9378483835005575 32.54761904761905  1.6630434782608696 31.99047619047619  1.2934782608695654 31.114285714285714  C 0.9239130434782609 30.238095238095237  0.6727982162764772 29.27619047619048  0.540133779264214 28.228571428571428  C 0.3885172798216277 27.009523809523806  0.27006688963210707 25.70952380952381  0.1847826086956522 24.32857142857143  C 0.09949832775919733 22.947619047619042  0.047380156075808255 21.866666666666667  0.028428093645484948 21.085714285714282  L 0.028428093645484948 19.942857142857143  L 0.028428093645484948 16.057142857142857  C 0.009476031215161648 13.295238095238094  0.18004459308807133 10.533333333333331  0.540133779264214 7.771428571428572  C 0.6727982162764772 6.723809523809521  0.9096989966555183 5.77619047619047  1.2508361204013376 4.928571428571427  C 1.5919732441471572 4.08095238095238  1.8952062430323302 3.495238095238092  2.160535117056856 3.171428571428572  L 2.5585284280936453 2.685714285714284  C 2.823857302118172 2.3999999999999995  3.0986622073578594 2.1476190476190427  3.3829431438127093 1.9285714285714297  C 3.6672240802675584 1.7095238095238088  3.9609810479375698 1.5238095238095197  4.264214046822742 1.3714285714285706  C 4.567447045707916 1.2190476190476134  4.832775919732441 1.0952380952380927  5.060200668896321 1.0000000000000004  C 5.287625418060201 0.9047619047619002  5.5576923076923075 0.8285714285714296  5.870401337792642 0.7714285714285727  C 6.1831103678929775 0.7142857142857157  6.405797101449277 0.671428571428573  6.538461538461538 0.6428571428571446  C 6.671125975473801 0.6142857142857161  6.88907469342252 0.5857142857142876  7.1923076923076925 0.5571428571428552  C 7.495540691192866 0.5285714285714267  7.656633221850615 0.5142857142857125  7.675585284280937 0.5142857142857125  Z " fill-rule="nonzero" fill="#ffffff" stroke="none" transform="matrix(1 0 0 1 1307 12 )" />
  </g>
</svg>