<?xml version="1.0" encoding="utf-8"?>
<svg version="1.1" xmlns:xlink="http://www.w3.org/1999/xlink" width="20px" height="20px" xmlns="http://www.w3.org/2000/svg">
  <g transform="matrix(1 0 0 1 -1279 -173 )">
    <path d="M 14.4921875 14.537760416666664  C 14.613715277777779 14.420572916666664  14.674479166666668 14.270833333333336  14.674479166666668 14.088541666666664  C 14.674479166666668 13.81076388888889  14.544270833333332 13.589409722222218  14.283854166666668 13.424479166666664  C 12.608506944444445 12.426215277777777  10.668402777777779 11.927083333333336  8.463541666666666 11.927083333333336  C 7.309027777777778 11.927083333333336  6.063368055555555 12.074652777777777  4.7265625 12.369791666666664  C 4.361979166666667 12.447916666666664  4.1796875 12.67361111111111  4.1796875 13.046875  C 4.1796875 13.22048611111111  4.23828125 13.370225694444443  4.35546875 13.49609375  C 4.47265625 13.621961805555554  4.626736111111112 13.684895833333336  4.817708333333333 13.684895833333336  C 4.861111111111112 13.684895833333336  5.021701388888889 13.65017361111111  5.299479166666666 13.580729166666664  C 6.4453125 13.346354166666664  7.5 13.229166666666664  8.463541666666666 13.229166666666664  C 10.425347222222223 13.229166666666664  12.148437500000002 13.676215277777777  13.6328125 14.5703125  C 13.797743055555555 14.66579861111111  13.940972222222223 14.713541666666664  14.0625 14.713541666666664  C 14.227430555555555 14.713541666666664  14.370659722222223 14.654947916666664  14.4921875 14.537760416666664  Z M 15.696614583333332 11.842447916666664  C 15.848524305555555 11.690538194444443  15.924479166666668 11.50607638888889  15.924479166666668 11.2890625  C 15.924479166666668 10.941840277777777  15.772569444444446 10.677083333333336  15.46875 10.494791666666664  C 13.411458333333332 9.270833333333332  11.032986111111114 8.658854166666668  8.333333333333334 8.658854166666668  C 7.005208333333334 8.658854166666668  5.690104166666666 8.841145833333332  4.388020833333333 9.205729166666668  C 3.971354166666667 9.31857638888889  3.763020833333333 9.596354166666668  3.763020833333333 10.0390625  C 3.763020833333333 10.25607638888889  3.8389756944444446 10.440538194444443  3.990885416666667 10.592447916666664  C 4.142795138888889 10.74435763888889  4.327256944444445 10.8203125  4.544270833333333 10.8203125  C 4.605034722222222 10.8203125  4.765625 10.785590277777777  5.026041666666666 10.716145833333336  C 6.0850694444444455 10.4296875  7.174479166666666 10.286458333333336  8.294270833333334 10.286458333333336  C 10.716145833333332 10.286458333333336  12.834201388888891 10.824652777777777  14.6484375 11.901041666666664  C 14.856770833333332 12.01388888888889  15.021701388888891 12.0703125  15.143229166666668 12.0703125  C 15.360243055555555 12.0703125  15.544704861111114 11.99435763888889  15.696614583333332 11.842447916666664  Z M 17.05078125 8.73046875  C 17.237413194444446 8.552517361111109  17.330729166666668 8.328993055555555  17.330729166666668 8.059895833333332  C 17.330729166666668 7.651909722222221  17.157118055555557 7.348090277777777  16.809895833333332 7.1484375  C 15.716145833333332 6.514756944444445  14.444444444444446 6.03515625  12.994791666666668 5.709635416666668  C 11.545138888888891 5.384114583333332  10.056423611111114 5.221354166666668  8.528645833333334 5.221354166666668  C 6.7578125 5.221354166666668  5.177951388888889 5.425347222222221  3.7890625 5.833333333333332  C 3.5894097222222228 5.894097222222221  3.4223090277777786 6.004774305555554  3.287760416666667 6.165364583333332  C 3.153211805555556 6.325954861111109  3.0859375000000004 6.536458333333332  3.0859375 6.796875  C 3.0859375000000004 7.065972222222221  3.1749131944444446 7.291666666666665  3.352864583333333 7.473958333333332  C 3.5308159722222228 7.656249999999998  3.7543402777777786 7.747395833333332  4.0234375 7.747395833333332  C 4.118923611111112 7.747395833333332  4.292534722222222 7.712673611111109  4.544270833333333 7.643229166666668  C 5.698784722222222 7.322048611111109  7.03125 7.161458333333332  8.541666666666666 7.161458333333332  C 9.921875 7.161458333333332  11.265190972222223 7.309027777777777  12.571614583333332 7.604166666666668  C 13.878038194444446 7.899305555555555  14.978298611111114 8.311631944444445  15.872395833333332 8.841145833333332  C 16.0546875 8.9453125  16.228298611111114 8.997395833333332  16.393229166666668 8.997395833333332  C 16.64496527777778 8.997395833333332  16.864149305555557 8.90842013888889  17.05078125 8.73046875  Z M 18.658854166666668 4.98046875  C 19.552951388888886 6.512586805555554  20 8.185763888888886  20 10  C 20 11.81423611111111  19.552951388888886 13.487413194444443  18.658854166666668 15.01953125  C 17.764756944444446 16.551649305555557  16.551649305555557 17.764756944444443  15.01953125 18.658854166666668  C 13.487413194444446 19.55295138888889  11.81423611111111 20  10 20  C 8.18576388888889 20  6.512586805555555 19.55295138888889  4.98046875 18.658854166666668  C 3.4483506944444446 17.764756944444443  2.235243055555556 16.551649305555557  1.3411458333333335 15.01953125  C 0.44704861111111105 13.487413194444443  0 11.81423611111111  0 10  C 0 8.185763888888886  0.44704861111111105 6.512586805555554  1.3411458333333335 4.98046875  C 2.235243055555556 3.448350694444444  3.4483506944444446 2.2352430555555536  4.98046875 1.3411458333333326  C 6.512586805555555 0.4470486111111094  8.18576388888889 0  10 0  C 11.81423611111111 0  13.487413194444446 0.4470486111111094  15.01953125 1.3411458333333326  C 16.551649305555557 2.2352430555555536  17.764756944444446 3.448350694444444  18.658854166666668 4.98046875  Z " fill-rule="nonzero" fill="#ffffff" stroke="none" transform="matrix(1 0 0 1 1279 173 )" />
  </g>
</svg>