<?xml version="1.0" encoding="utf-8"?>
<svg version="1.1" xmlns:xlink="http://www.w3.org/1999/xlink" width="35px" height="25px" xmlns="http://www.w3.org/2000/svg">
  <g transform="matrix(1 0 0 1 -1272 -101 )">
    <path d="M 13.890746934225195 7.123015873015873  L 13.890746934225195 17.103174603174605  L 23.333333333333332 12.142857142857144  L 13.890746934225195 7.123015873015873  Z M 5.267558528428094 0.3571428571428559  C 8.532144184318097 0.11904761904761862  12.609624674842063 0  17.5 0  C 19.6850613154961 0  21.795336306205872 0.029761904761904656  23.83082497212932 0.08928571428571397  C 25.866313638052773 0.14880952380952328  27.35878855444073 0.21164021164020996  28.308249721293198 0.2777777777777768  L 29.732441471571907 0.3571428571428559  C 29.74544778892605 0.3571428571428559  29.85600148643627 0.36706349206349076  30.064102564102562 0.38690476190476053  C 30.27220364176886 0.4067460317460331  30.421776291341512 0.42658730158730285  30.512820512820515 0.4464285714285726  C 30.603864734299517 0.4662698412698424  30.756688963210703 0.49603174603174705  30.97129319955407 0.5357142857142866  C 31.185897435897438 0.5753968253968261  31.371237458193978 0.6283068783068751  31.527313266443702 0.6944444444444448  C 31.683389074693423 0.7605820105820088  31.865477517651435 0.8465608465608426  32.07357859531773 0.9523809523809518  C 32.281679672984026 1.0582010582010555  32.48327759197325 1.1871693121693117  32.67837235228539 1.339285714285715  C 32.87346711259755 1.491402116402113  33.062058714232634 1.6666666666666663  33.24414715719064 1.865079365079364  C 33.322185061315494 1.944444444444443  33.42298402081011 2.066798941798939  33.54654403567447 2.2321428571428577  C 33.67010405053884 2.3974867724867703  33.858695652173914 2.784391534391534  34.11231884057971 3.392857142857142  C 34.365942028985515 4.001322751322747  34.53827573392791 4.6693121693121675  34.62931995540691 5.396825396825397  C 34.73337049424006 6.243386243386243  34.81465997770346 7.14616402116402  34.8731884057971 8.10515873015873  C 34.93171683389075 9.064153439153438  34.96748420661464 9.814814814814813  34.98049052396878 10.357142857142856  L 34.98049052396878 11.15079365079365  L 34.98049052396878 13.84920634920635  C 34.99349684132293 15.767195767195762  34.87643998513564 17.685185185185183  34.62931995540691 19.603174603174605  C 34.53827573392791 20.330687830687832  34.37569676700112 20.988756613756614  34.14158305462654 21.577380952380953  C 33.90746934225196 22.16600529100529  33.69936826458566 22.572751322751326  33.517279821627646 22.797619047619047  L 33.24414715719064 23.134920634920636  C 33.062058714232634 23.333333333333332  32.87346711259755 23.508597883597883  32.67837235228539 23.660714285714285  C 32.48327759197325 23.81283068783069  32.281679672984026 23.938492063492063  32.07357859531773 24.037698412698415  C 31.865477517651435 24.136904761904763  31.683389074693423 24.21957671957672  31.527313266443702 24.285714285714285  C 31.371237458193978 24.35185185185185  31.185897435897438 24.404761904761905  30.97129319955407 24.444444444444443  C 30.756688963210703 24.484126984126984  30.60061315496098 24.51388888888889  30.503065774804906 24.533730158730158  C 30.40551839464883 24.553571428571427  30.255945745076183 24.573412698412696  30.054347826086957 24.59325396825397  C 29.852749907097735 24.61309523809524  29.74544778892605 24.623015873015873  29.732441471571907 24.623015873015873  C 26.467855815681904 24.874338624338627  22.390375325157933 25  17.5 25  C 14.807692307692308 24.973544973544975  12.469806763285025 24.930555555555557  10.486343366778149 24.871031746031747  C 8.502879970271275 24.811507936507937  7.198996655518394 24.761904761904763  6.574693422519509 24.72222222222222  L 5.618729096989966 24.642857142857146  L 4.916387959866221 24.563492063492063  C 4.448160535117057 24.497354497354497  4.093738387216648 24.43121693121693  3.8531215161649945 24.365079365079364  C 3.612504645113341 24.2989417989418  3.280843552582683 24.16005291005291  2.858138238573021 23.9484126984127  C 2.4354329245633592 23.736772486772484  2.068004459308807 23.46560846560847  1.7558528428093645 23.134920634920636  C 1.6778149386845038 23.055555555555557  1.5770159791898923 22.933201058201057  1.4534559643255296 22.767857142857142  C 1.3298959494611668 22.602513227513228  1.141304347826087 22.215608465608465  0.8876811594202899 21.607142857142858  C 0.6340579710144928 20.998677248677247  0.46172426607209216 20.330687830687832  0.37068004459308806 19.603174603174605  C 0.26662950575994054 18.756613756613756  0.18534002229654406 17.853835978835978  0.12681159420289856 16.894841269841272  C 0.06828316610925307 15.935846560846556  0.03251579338535861 15.185185185185185  0.01950947603121516 14.64285714285714  L 0.01950947603121516 13.84920634920635  L 0.01950947603121516 11.15079365079365  C 0.006503158677071719 9.23280423280423  0.12356001486436269 7.314814814814813  0.37068004459308806 5.396825396825397  C 0.46172426607209216 4.6693121693121675  0.6243032329988851 4.0112433862433825  0.858416945373467 3.4226190476190466  C 1.0925306577480491 2.833994708994708  1.3006317354143442 2.427248677248675  1.4827201783723523 2.202380952380953  L 1.7558528428093645 1.865079365079364  C 1.937941285767373 1.6666666666666663  2.1265328874024525 1.491402116402113  2.3216276477146045 1.339285714285715  C 2.5167224080267556 1.1871693121693117  2.7183203270159795 1.0582010582010555  2.9264214046822743 0.9523809523809518  C 3.1345224823485696 0.8465608465608426  3.3166109253065774 0.7605820105820088  3.4726867335562988 0.6944444444444448  C 3.62876254180602 0.6283068783068751  3.8141025641025643 0.5753968253968261  4.0287068004459305 0.5357142857142866  C 4.243311036789298 0.49603174603174705  4.396135265700484 0.4662698412698424  4.487179487179487 0.4464285714285726  C 4.578223708658491 0.42658730158730285  4.727796358231141 0.4067460317460331  4.935897435897436 0.38690476190476053  C 5.143998513563731 0.36706349206349076  5.2545522110739515 0.3571428571428559  5.267558528428094 0.3571428571428559  Z " fill-rule="nonzero" fill="#ffffff" stroke="none" transform="matrix(1 0 0 1 1272 101 )" />
  </g>
</svg>