<?xml version="1.0" encoding="utf-8"?>
<svg version="1.1" xmlns:xlink="http://www.w3.org/1999/xlink" width="21px" height="29px" xmlns="http://www.w3.org/2000/svg">
  <g transform="matrix(1 0 0 1 -118 -841 )">
    <path d="M 5.5166015625 13.6525974025974  L 20.0771484375 0.28246753246753176  C 20.3369140625 0.04393939393939261  20.5556640625 -0.037662337662339285  20.7333984375 0.037662337662336065  C 20.9111328125 0.11298701298701141  21 0.3138528138528113  21 0.6402597402597389  L 21 28.35974025974026  C 21 28.686147186147185  20.9111328125 28.887012987012987  20.7333984375 28.962337662337664  C 20.5556640625 29.03766233766234  20.3369140625 28.956060606060607  20.0771484375 28.717532467532468  L 5.5166015625 15.3474025974026  C 5.3935546875 15.234415584415585  5.3046875 15.115151515151515  5.25 14.989610389610391  L 5.25 27.75714285714286  C 5.25 28.08354978354978  5.1201171875 28.366017316017313  4.8603515625 28.604545454545452  C 4.6005859375 28.843073593073598  4.29296875 28.962337662337664  3.9375 28.962337662337664  L 1.3125 28.962337662337664  C 0.9570312500000001 28.962337662337664  0.6494140625 28.843073593073598  0.3896484375 28.604545454545452  C 0.1298828125 28.366017316017313  0 28.08354978354978  0 27.75714285714286  L 0 1.2428571428571416  C 0 0.9164502164502141  0.1298828125 0.6339826839826823  0.3896484375 0.3954545454545464  C 0.6494140625 0.15692640692640403  0.9570312500000001 0.037662337662336065  1.3125 0.037662337662336065  L 3.9375 0.037662337662336065  C 4.29296875 0.037662337662336065  4.6005859375 0.15692640692640403  4.8603515625 0.3954545454545464  C 5.1201171875 0.6339826839826823  5.25 0.9164502164502141  5.25 1.2428571428571416  L 5.25 14.010389610389613  C 5.3046875 13.884848484848485  5.3935546875 13.765584415584415  5.5166015625 13.6525974025974  Z " fill-rule="nonzero" fill="#ffffff" stroke="none" transform="matrix(1 0 0 1 118 841 )" />
  </g>
</svg>