<?xml version="1.0" encoding="utf-8"?>
<svg version="1.1" xmlns:xlink="http://www.w3.org/1999/xlink" width="19px" height="19px" xmlns="http://www.w3.org/2000/svg">
  <g transform="matrix(1 0 0 1 -1308 -65 )">
    <path d="M 13.767578125 13.810872395833332  C 13.88302951388889 13.699544270833332  13.940755208333334 13.557291666666668  13.940755208333334 13.384114583333332  C 13.940755208333334 13.120225694444445  13.817057291666666 12.909939236111107  13.569661458333334 12.753255208333332  C 11.978081597222221 11.804904513888888  10.13498263888889 11.330729166666668  8.040364583333332 11.330729166666668  C 6.943576388888889 11.330729166666668  5.760199652777778 11.470920138888888  4.490234375 11.751302083333332  C 4.143880208333334 11.825520833333332  3.970703125 12.039930555555555  3.970703125 12.39453125  C 3.970703125 12.559461805555555  4.0263671875 12.70171440972222  4.1376953125 12.8212890625  C 4.2490234375 12.940863715277775  4.395399305555556 13.000651041666668  4.576822916666666 13.000651041666668  C 4.618055555555556 13.000651041666668  4.770616319444445 12.967664930555555  5.034505208333333 12.901692708333332  C 6.123046875 12.679036458333332  7.125 12.567708333333332  8.040364583333332 12.567708333333332  C 9.904079861111112 12.567708333333332  11.541015625000002 12.992404513888888  12.951171875 13.841796875  C 13.107855902777779 13.932508680555555  13.243923611111112 13.977864583333332  13.359375 13.977864583333332  C 13.516059027777779 13.977864583333332  13.652126736111112 13.922200520833332  13.767578125 13.810872395833332  Z M 14.911783854166666 11.250325520833332  C 15.056098090277779 11.10601128472222  15.128255208333334 10.930772569444445  15.128255208333334 10.724609375  C 15.128255208333334 10.394748263888888  14.983940972222225 10.143229166666668  14.6953125 9.970052083333332  C 12.740885416666666 8.807291666666666  10.481336805555559 8.225911458333334  7.916666666666667 8.225911458333334  C 6.654947916666667 8.225911458333334  5.405598958333333 8.399088541666666  4.168619791666666 8.745442708333334  C 3.7727864583333335 8.852647569444445  3.5748697916666665 9.116536458333334  3.5748697916666665 9.537109375  C 3.5748697916666665 9.743272569444445  3.6470269097222223 9.91851128472222  3.7913411458333335 10.062825520833332  C 3.9356553819444446 10.207139756944445  4.110894097222222 10.279296875  4.317057291666666 10.279296875  C 4.374782986111112 10.279296875  4.52734375 10.246310763888888  4.774739583333333 10.180338541666668  C 5.780815972222223 9.908203125  6.815755208333333 9.772135416666668  7.879557291666667 9.772135416666668  C 10.180338541666666 9.772135416666668  12.192491319444446 10.283420138888888  13.916015625 11.305989583333332  C 14.113932291666666 11.413194444444445  14.270616319444446 11.466796875  14.386067708333334 11.466796875  C 14.592230902777779 11.466796875  14.767469618055559 11.394639756944445  14.911783854166666 11.250325520833332  Z M 16.1982421875 8.2939453125  C 16.375542534722225 8.124891493055554  16.464192708333336 7.912543402777778  16.464192708333336 7.656901041666666  C 16.464192708333336 7.26931423611111  16.29926215277778 6.9806857638888875  15.969401041666666 6.791015625  C 14.930338541666666 6.189019097222222  13.722222222222225 5.7333984375  12.345052083333334 5.424153645833334  C 10.967881944444446 5.114908854166666  9.553602430555559 4.960286458333334  8.102213541666668 4.960286458333334  C 6.419921875 4.960286458333334  4.919053819444445 5.15407986111111  3.599609375 5.541666666666666  C 3.4099392361111116 5.59939236111111  3.2511935763888897 5.704535590277776  3.1233723958333335 5.857096354166666  C 2.995551215277778 6.009657118055554  2.9316406250000004 6.209635416666666  2.931640625 6.45703125  C 2.9316406250000004 6.71267361111111  3.0161675347222223 6.927083333333332  3.1852213541666665 7.100260416666666  C 3.3542751736111116 7.273437499999998  3.5666232638888897 7.360026041666666  3.822265625 7.360026041666666  C 3.9129774305555562 7.360026041666666  4.077907986111112 7.327039930555554  4.317057291666666 7.261067708333334  C 5.413845486111111 6.955946180555554  6.6796875 6.803385416666666  8.114583333333332 6.803385416666666  C 9.42578125 6.803385416666666  10.701931423611112 6.9435763888888875  11.943033854166666 7.223958333333334  C 13.184136284722225 7.504340277777778  14.229383680555559 7.896050347222222  15.078776041666666 8.399088541666666  C 15.251953125 8.498046875  15.416883680555559 8.547526041666666  15.573567708333334 8.547526041666666  C 15.81271701388889 8.547526041666666  16.02094184027778 8.462999131944445  16.1982421875 8.2939453125  Z M 17.725911458333336 4.7314453125  C 18.575303819444443 6.186957465277776  19 7.776475694444442  19 9.5  C 19 11.223524305555555  18.575303819444443 12.81304253472222  17.725911458333336 14.2685546875  C 16.876519097222225 15.724066840277779  15.724066840277779 16.87651909722222  14.2685546875 17.725911458333336  C 12.813042534722225 18.575303819444446  11.223524305555555 19  9.5 19  C 7.776475694444445 19  6.186957465277778 18.575303819444446  4.7314453125 17.725911458333336  C 3.2759331597222223 16.87651909722222  2.123480902777778 15.724066840277779  1.2740885416666667 14.2685546875  C 0.42469618055555547 12.81304253472222  0 11.223524305555555  0 9.5  C 0 7.776475694444442  0.42469618055555547 6.186957465277776  1.2740885416666667 4.7314453125  C 2.123480902777778 3.275933159722222  3.2759331597222223 2.123480902777776  4.7314453125 1.274088541666666  C 6.186957465277778 0.4246961805555539  7.776475694444445 0  9.5 0  C 11.223524305555555 0  12.813042534722225 0.4246961805555539  14.2685546875 1.274088541666666  C 15.724066840277779 2.123480902777776  16.876519097222225 3.275933159722222  17.725911458333336 4.7314453125  Z " fill-rule="nonzero" fill="#ffffff" stroke="none" transform="matrix(1 0 0 1 1308 65 )" />
  </g>
</svg>