<?xml version="1.0" encoding="utf-8"?>
<svg version="1.1" xmlns:xlink="http://www.w3.org/1999/xlink" width="35px" height="26px" xmlns="http://www.w3.org/2000/svg">
  <g transform="matrix(1 0 0 1 -1300 -141 )">
    <path d="M 23.16015625 14.006392045454545  C 23.275607638888893 13.889441287878787  23.333333333333332 13.750946969696969  23.333333333333332 13.59090909090909  C 23.333333333333332 13.418560606060606  23.278645833333336 13.276988636363638  23.169270833333332 13.16619318181818  L 16.752604166666668 6.666193181818181  C 16.643229166666668 6.555397727272726  16.503472222222225 6.5  16.333333333333332 6.5  C 16.163194444444446 6.5  16.023437500000004 6.555397727272726  15.9140625 6.666193181818181  L 9.515625 13.147727272727272  C 9.394097222222223 13.295454545454545  9.333333333333334 13.44318181818182  9.333333333333334 13.59090909090909  C 9.333333333333334 13.763257575757574  9.388020833333334 13.904829545454545  9.497395833333334 14.015625  C 9.606770833333334 14.126420454545455  9.74652777777778 14.18181818181818  9.916666666666666 14.18181818181818  L 14 14.18181818181818  L 14 20.68181818181818  C 14 20.84185606060606  14.057725694444445 20.98035037878788  14.173177083333334 21.097301136363637  C 14.288628472222223 21.214251893939394  14.425347222222223 21.27272727272727  14.583333333333334 21.27272727272727  L 18.083333333333336 21.27272727272727  C 18.241319444444446 21.27272727272727  18.378038194444446 21.214251893939394  18.493489583333336 21.097301136363637  C 18.60894097222222 20.98035037878788  18.666666666666668 20.84185606060606  18.666666666666668 20.68181818181818  L 18.666666666666668 14.18181818181818  L 22.75 14.18181818181818  C 22.907986111111114 14.18181818181818  23.044704861111114 14.123342803030303  23.16015625 14.006392045454545  Z M 33.477864583333336 14.50497159090909  C 34.49262152777778 15.791429924242426  35.00000000000001 17.259469696969695  35 18.90909090909091  C 35.00000000000001 20.86647727272727  34.31640625000001 22.537642045454547  32.94921875 23.92258522727273  C 31.582031250000004 25.30752840909091  29.93229166666667 26  28 26  L 8.166666666666666 26  C 5.918402777777777 26  3.9952256944444446 25.190577651515152  2.397135416666667 23.571732954545453  C 0.7990451388888888 21.952888257575754  0 20.00473484848485  0 17.72727272727273  C 0 16.126893939393938  0.4253472222222222 14.649621212121213  1.2760416666666667 13.295454545454545  C 2.126736111111111 11.941287878787875  3.2690972222222223 10.925662878787875  4.703125 10.248579545454545  C 4.678819444444445 9.879261363636365  4.666666666666667 9.614583333333332  4.666666666666667 9.454545454545455  C 4.666666666666667 6.844696969696968  5.578125 4.616477272727274  7.401041666666667 2.769886363636364  C 9.223958333333334 0.9232954545454548  11.423611111111112 0  14 0  C 15.895833333333336 0  17.630642361111114 0.5355113636363644  19.204427083333332 1.6065340909090904  C 20.778211805555557 2.6775568181818192  21.92361111111111 4.099431818181819  22.640625 5.87215909090909  C 23.503472222222225 5.108901515151513  24.51215277777778 4.727272727272726  25.666666666666664 4.727272727272726  C 26.954861111111114 4.727272727272726  28.0546875 5.188920454545455  28.966145833333336 6.11221590909091  C 29.877604166666668 7.035511363636364  30.333333333333336 8.14962121212121  30.333333333333336 9.454545454545455  C 30.333333333333336 10.390151515151514  30.08420138888889 11.239583333333332  29.5859375 12.00284090909091  C 31.165798611111114 12.384469696969697  32.46310763888889 13.218513257575754  33.477864583333336 14.50497159090909  Z " fill-rule="nonzero" fill="#ffffff" stroke="none" transform="matrix(1 0 0 1 1300 141 )" />
  </g>
</svg>