<?xml version="1.0" encoding="utf-8"?>
<svg version="1.1" xmlns:xlink="http://www.w3.org/1999/xlink" width="35px" height="20px" xmlns="http://www.w3.org/2000/svg">
  <g transform="matrix(1 0 0 1 -1300 -115 )">
    <path d="M 24.14605034722222 14.941089837997055  C 24.708116319444446 14.396170839469809  24.989149305555554 13.74079528718704  24.989149305555554 12.974963181148748  C 24.989149305555554 12.395679921453118  24.816984953703706 11.872852233676973  24.47265625 11.406480117820323  C 24.128327546296298 10.94010800196367  23.68778935185185 10.603829160530191  23.151041666666668 10.39764359351988  C 23.080150462962965 10.839469808541974  22.96368634259259 11.291114383897888  22.801649305555554 11.75257731958763  C 22.73075810185185 11.988217967599411  22.591507523148152 12.174766813942071  22.383897569444446 12.312223858615612  C 22.176287615740744 12.449680903289151  21.95095486111111 12.51840942562592  21.707899305555554 12.51840942562592  C 21.58637152777778 12.51840942562592  21.46484375 12.503681885125184  21.34331597222222 12.474226804123711  C 21.029369212962965 12.37604320078547  20.80150462962963 12.187039764359353  20.65972222222222 11.907216494845361  C 20.517939814814817 11.627393225331367  20.49768518518519 11.340206185567009  20.598958333333332 11.045655375552283  C 20.831886574074076 10.34855179185076  20.948350694444446 9.646539027982326  20.948350694444446 8.939617083946981  C 20.948350694444446 7.731958762886597  20.63946759259259 6.615120274914088  20.02170138888889 5.589101620029455  C 19.40393518518519 4.563082965144821  18.563368055555554 3.750613647520862  17.5 3.1516936671575846  C 16.436631944444446 2.552773686794305  15.282118055555557 2.2533136966126666  14.036458333333334 2.2533136966126666  C 12.679398148148149 2.2533136966126666  11.428674768518519 2.6116838487972505  10.284288194444445 3.3284241531664205  C 9.139901620370372 4.045164457535588  8.294270833333332 4.997545409916542  7.747395833333333 6.185567010309279  C 8.841145833333334 6.460481099656357  9.793113425925926 6.980854197349043  10.60329861111111 7.746686303387333  C 10.826099537037038 7.97250859106529  10.9375 8.242513500245458  10.9375 8.556701030927837  C 10.9375 8.870888561610212  10.826099537037038 9.135984290623465  10.60329861111111 9.3519882179676  C 10.380497685185185 9.567992145311733  10.107060185185185 9.675994108983799  9.78298611111111 9.675994108983799  C 9.458912037037038 9.675994108983799  9.18041087962963 9.567992145311733  8.94748263888889 9.3519882179676  C 8.187934027777777 8.615611192930782  7.276475694444445 8.24742268041237  6.213107638888888 8.24742268041237  C 5.139612268518519 8.24742268041237  4.223090277777778 8.613156602847322  3.4635416666666665 9.344624447717232  C 2.703993055555556 10.076092292587138  2.32421875 10.962199312714775  2.32421875 12.002945508100147  C 2.32421875 13.043691703485516  2.703993055555556 13.929798723613157  3.4635416666666665 14.661266568483065  C 4.223090277777778 15.392734413352969  5.139612268518519 15.758468335787922  6.213107638888888 15.758468335787922  L 22.102864583333332 15.758468335787922  C 22.902922453703706 15.758468335787922  23.583984375 15.4860088365243  24.14605034722222 14.941089837997055  Z M 26.151258680555554 9.815905743740796  C 26.92599826388889 10.73392243495336  27.313368055555554 11.786941580756011  27.313368055555554 12.974963181148748  C 27.313368055555554 14.36917034855179  26.80447048611111 15.557191948944524  25.78667534722222 16.53902798232695  C 24.768880208333332 17.52086401570938  23.540943287037038 18.01178203240059  22.102864583333332 18  L 6.213107638888888 18  C 4.501591435185186 18.01178203240059  3.0381944444444446 17.42513500245459  1.8229166666666667 16.25184094256259  C 0.607638888888889 15.078546882670594  0 13.662248404516443  0 12.002945508100147  C 0 10.500736377025037  0.5063657407407407 9.1899852724595  1.519097222222222 8.070692194403534  C 2.5318287037037037 6.9513991163475675  3.792679398148149 6.283750613647518  5.301649305555555 6.067746686303388  C 5.929542824074074 4.261168384879723  7.0486111111111125 2.7982326951399106  8.658854166666668 1.6789396170839477  C 10.269097222222223 0.5596465390279826  12.061631944444445 0  14.036458333333334 0  C 16.416377314814817 0  18.484881365740744 0.7781050564555714  20.24197048611111 2.3343151693667163  C 21.999059606481485 3.890525282277857  22.994068287037038 5.8026509572901315  23.22699652777778 8.070692194403534  C 24.401765046296298 8.31615120274914  25.37651909722222 8.897889052528228  26.151258680555554 9.815905743740796  Z M 29.637586805555554 8.29160530191458  C 30.61993634259259 9.685812469317623  31.11111111111111 11.246931762395679  31.11111111111111 12.974963181148748  C 31.11111111111111 14.69317623956799  30.61993634259259 16.25920471281296  29.637586805555554 17.673048600883654  C 29.404658564814817 17.997054491899853  29.080584490740744 18.159057437407952  28.665364583333332 18.159057437407952  C 28.422309027777782 18.159057437407952  28.204571759259263 18.0952380952381  28.01215277777778 17.96759941089838  C 27.748842592592595 17.80068728522337  27.586805555555557 17.562592047128128  27.526041666666668 17.253313696612665  C 27.465277777777782 16.944035346097202  27.52604166666667 16.661757486499752  27.708333333333332 16.406480117820323  C 28.42737268518519 15.3853706431026  28.78689236111111 14.241531664212078  28.78689236111111 12.974963181148748  C 28.78689236111111 11.708394698085417  28.42737268518519 10.564555719194892  27.708333333333332 9.543446244477172  C 27.52604166666667 9.288168875797743  27.465277777777782 9.00834560628375  27.526041666666668 8.7039764359352  C 27.586805555555557 8.399607265586646  27.748842592592595 8.159057437407952  28.01215277777778 7.982326951399116  C 28.275462962962965 7.805596465390279  28.56662326388889 7.749140893470788  28.885633680555554 7.812960235640649  C 29.20464409722222 7.876779577810504  29.45529513888889 8.03632793323515  29.637586805555554 8.29160530191458  Z M 32.96440972222222 6.465390279823269  C 34.32146990740741 8.40942562592047  35 10.579283259695629  35 12.974963181148748  C 35 15.370643102601864  34.32146990740741 17.54540991654394  32.96440972222222 19.49926362297496  C 32.73148148148149 19.83308787432499  32.40740740740741 20  31.9921875 20  C 31.759259259259263 20  31.546585648148152 19.936180657830143  31.354166666666668 19.808541973490428  C 31.090856481481485 19.63181148748159  30.926287615740744 19.3912616593029  30.860460069444446 19.086892488954344  C 30.794632523148152 18.782523318605794  30.852864583333336 18.5027000490918  31.03515625 18.24742268041237  C 32.12890625 16.637211585665195  32.67578125 14.879725085910653  32.67578125 12.974963181148748  C 32.67578125 11.060382916053019  32.12890625 9.307805596465391  31.03515625 7.717231222385861  C 30.852864583333336 7.461953853706431  30.794632523148152 7.179675994108983  30.860460069444446 6.87039764359352  C 30.926287615740744 6.561119293078055  31.090856481481485 6.323024054982818  31.354166666666668 6.156111929307806  C 31.61747685185185 5.97938144329897  31.906105324074076 5.920471281296022  32.22005208333333 5.97938144329897  C 32.533998842592595 6.038291605301915  32.78211805555556 6.200294550810015  32.96440972222222 6.465390279823269  Z " fill-rule="nonzero" fill="#ffffff" stroke="none" transform="matrix(1 0 0 1 1300 115 )" />
  </g>
</svg>