<?xml version="1.0" encoding="utf-8"?>
<svg version="1.1" xmlns:xlink="http://www.w3.org/1999/xlink" width="50px" height="39px" xmlns="http://www.w3.org/2000/svg">
  <g transform="matrix(1 0 0 1 -14 -8 )">
    <path d="M 9.151785714285714 29.91477272727273  C 10.193452380952381 30.948863636363633  10.714285714285714 32.20454545454545  10.714285714285714 33.68181818181818  C 10.714285714285714 35.15909090909091  10.193452380952381 36.414772727272734  9.151785714285714 37.44886363636363  C 8.110119047619047 38.48295454545455  6.845238095238096 39  5.357142857142857 39  C 3.86904761904762 39  2.604166666666667 38.48295454545455  1.5625 37.44886363636363  C 0.5208333333333333 36.414772727272734  0 35.15909090909091  0 33.68181818181818  C 0 32.20454545454545  0.5208333333333333 30.948863636363633  1.5625 29.91477272727273  C 2.604166666666667 28.880681818181817  3.86904761904762 28.363636363636363  5.357142857142857 28.363636363636363  C 6.845238095238096 28.363636363636363  8.110119047619047 28.880681818181817  9.151785714285714 29.91477272727273  Z M 9.151785714285714 15.732954545454547  C 10.193452380952381 16.76704545454545  10.714285714285714 18.02272727272727  10.714285714285714 19.5  C 10.714285714285714 20.977272727272727  10.193452380952381 22.232954545454547  9.151785714285714 23.267045454545457  C 8.110119047619047 24.30113636363636  6.845238095238096 24.818181818181817  5.357142857142857 24.818181818181817  C 3.86904761904762 24.818181818181817  2.604166666666667 24.30113636363636  1.5625 23.267045454545457  C 0.5208333333333333 22.232954545454547  0 20.977272727272727  0 19.5  C 0 18.02272727272727  0.5208333333333333 16.76704545454545  1.5625 15.732954545454547  C 2.604166666666667 14.698863636363635  3.86904761904762 14.181818181818182  5.357142857142857 14.181818181818182  C 6.845238095238096 14.181818181818182  8.110119047619047 14.698863636363635  9.151785714285714 15.732954545454547  Z M 49.734933035714285 30.399502840909093  C 49.9116443452381 30.574928977272727  50 30.782670454545453  50 31.02272727272727  L 50 36.34090909090909  C 50 36.58096590909091  49.9116443452381 36.78870738636364  49.734933035714285 36.96413352272727  C 49.55822172619048 37.13955965909091  49.34895833333334 37.22727272727273  49.107142857142854 37  L 15.178571428571427 37  C 14.936755952380953 37.22727272727273  14.72749255952381 37.13955965909091  14.55078125 36.96413352272727  C 14.374069940476192 36.78870738636364  14.285714285714285 36.58096590909091  14.285714285714285 36.34090909090909  L 14.285714285714285 31.02272727272727  C 14.285714285714285 30.782670454545453  14.374069940476192 30.574928977272727  14.55078125 30.399502840909093  C 14.72749255952381 30.224076704545457  14.936755952380953 30.136363636363637  15.178571428571427 30  L 49.107142857142854 30  C 49.34895833333334 30.136363636363637  49.55822172619048 30.224076704545457  49.734933035714285 30.399502840909093  Z M 9.151785714285714 1.5511363636363644  C 10.193452380952381 2.5852272727272725  10.714285714285714 3.8409090909090873  10.714285714285714 5.3181818181818175  C 10.714285714285714 6.795454545454544  10.193452380952381 8.051136363636358  9.151785714285714 9.085227272727272  C 8.110119047619047 10.11931818181818  6.845238095238096 10.636363636363635  5.357142857142857 10.636363636363635  C 3.86904761904762 10.636363636363635  2.604166666666667 10.11931818181818  1.5625 9.085227272727272  C 0.5208333333333333 8.051136363636358  0 6.795454545454544  0 5.3181818181818175  C 0 3.8409090909090873  0.5208333333333333 2.5852272727272725  1.5625 1.5511363636363644  C 2.604166666666667 0.5170454545454519  3.86904761904762 0  5.357142857142857 0  C 6.845238095238096 0  8.110119047619047 0.5170454545454519  9.151785714285714 1.5511363636363644  Z M 49.734933035714285 16.21768465909091  C 49.9116443452381 16.393110795454543  50 16.600852272727273  50 16.84090909090909  L 50 22.159090909090907  C 50 22.399147727272723  49.9116443452381 22.606889204545453  49.734933035714285 22.782315340909093  C 49.55822172619048 22.957741477272727  49.34895833333334 23.045454545454543  49.107142857142854 23  L 15.178571428571427 23  C 14.936755952380953 23.045454545454543  14.72749255952381 22.957741477272727  14.55078125 22.782315340909093  C 14.374069940476192 22.606889204545453  14.285714285714285 22.399147727272723  14.285714285714285 22.159090909090907  L 14.285714285714285 16.84090909090909  C 14.285714285714285 16.600852272727273  14.374069940476192 16.393110795454543  14.55078125 16.21768465909091  C 14.72749255952381 16.042258522727273  14.936755952380953 15.954545454545453  15.178571428571427 16  L 49.107142857142854 16  C 49.34895833333334 15.954545454545453  49.55822172619048 16.042258522727273  49.734933035714285 16.21768465909091  Z M 49.734933035714285 2.035866477272729  C 49.9116443452381 2.2112926136363615  50 2.4190340909090904  50 2.659090909090911  L 50 7.977272727272728  C 50 8.217329545454541  49.9116443452381 8.42507102272727  49.734933035714285 8.600497159090912  C 49.55822172619048 8.775923295454543  49.34895833333334 8.863636363636365  49.107142857142854 9  L 15.178571428571427 9  C 14.936755952380953 8.863636363636365  14.72749255952381 8.775923295454543  14.55078125 8.600497159090912  C 14.374069940476192 8.42507102272727  14.285714285714285 8.217329545454541  14.285714285714285 7.977272727272728  L 14.285714285714285 2.659090909090911  C 14.285714285714285 2.4190340909090904  14.374069940476192 2.2112926136363615  14.55078125 2.035866477272729  C 14.72749255952381 1.8604403409090875  14.936755952380953 1.7727272727272712  15.178571428571427 2  L 49.107142857142854 2  C 49.34895833333334 1.7727272727272712  49.55822172619048 1.8604403409090875  49.734933035714285 2.035866477272729  Z " fill-rule="nonzero" fill="#282828" stroke="none" transform="matrix(1 0 0 1 14 8 )" />
  </g>
</svg>