<?xml version="1.0" encoding="utf-8"?>
<svg version="1.1" xmlns:xlink="http://www.w3.org/1999/xlink" width="36px" height="16px" xmlns="http://www.w3.org/2000/svg">
  <g transform="matrix(1 0 0 1 -1271 -245 )">
    <path d="M 11.875 15.984  C 12.104166666666668 15.984  12.229166666666668 15.861333333333333  12.25 15.616  L 12.5 11.76  L 12.25 3.3919999999999995  C 12.239583333333336 3.285333333333332  12.200520833333336 3.1946666666666665  12.1328125 3.119999999999999  C 12.065104166666668 3.045333333333332  11.979166666666668 3.007999999999999  11.875 3.007999999999999  C 11.78125 3.007999999999999  11.697916666666668 3.045333333333332  11.625 3.119999999999999  C 11.552083333333334 3.1946666666666665  11.515625 3.285333333333332  11.515625 3.3919999999999995  L 11.296875 11.76  L 11.515625 15.616  C 11.526041666666668 15.722666666666669  11.565104166666668 15.810666666666668  11.6328125 15.88  C 11.700520833333334 15.949333333333332  11.78125 15.984  11.875 15.984  Z M 16.859375 15.536  L 16.875 15.152  L 17.046875 11.776  L 16.859375 2.4000000000000004  C 16.859375 2.229333333333333  16.791666666666668 2.101333333333333  16.65625 2.016  C 16.572916666666668 1.9626666666666654  16.489583333333336 1.936  16.40625 1.936  C 16.322916666666668 1.936  16.239583333333336 1.9626666666666654  16.15625 2.016  C 16.020833333333336 2.101333333333333  15.953125 2.229333333333333  15.953125 2.4000000000000004  L 15.9375 2.4960000000000004  L 15.78125 11.76  C 15.78125 11.770666666666664  15.838541666666668 13.029333333333332  15.953125 15.536  L 15.953125 15.552  C 15.953125 15.658666666666669  15.984375 15.749333333333333  16.046875 15.824  C 16.140625 15.941333333333333  16.260416666666668 16  16.40625 16  C 16.520833333333336 16  16.625 15.952  16.71875 15.856  C 16.8125 15.781333333333333  16.859375 15.674666666666667  16.859375 15.536  Z M 0.40625 9.568  C 0.47916666666666674 9.568  0.5260416666666667 9.616  0.546875 9.712  L 0.859375 11.76  L 0.546875 13.776  C 0.5260416666666667 13.872  0.47916666666666674 13.92  0.40625 13.92  C 0.33333333333333337 13.92  0.28645833333333337 13.872  0.265625 13.776  L 0 11.76  L 0.265625 9.712  C 0.28645833333333337 9.616  0.33333333333333337 9.568  0.40625 9.568  Z M 1.734375 8.304  C 1.8177083333333335 8.304  1.869791666666667 8.352  1.890625 8.448  L 2.296875 11.76  L 1.890625 15.008  C 1.869791666666667 15.104  1.8177083333333335 15.152  1.734375 15.152  C 1.6406250000000002 15.152  1.5937500000000004 15.098666666666668  1.59375 14.992  L 1.234375 11.76  L 1.59375 8.448  C 1.5937500000000004 8.352  1.6406250000000002 8.304  1.734375 8.304  Z M 3.15625 7.648  C 3.270833333333334 7.648  3.328125000000001 7.712  3.328125 7.84  L 3.71875 11.76  L 3.328125 15.552  C 3.328125000000001 15.669333333333332  3.270833333333334 15.728  3.15625 15.728  C 3.052083333333333 15.728  2.989583333333333 15.669333333333332  2.96875 15.552  L 2.640625 11.76  L 2.96875 7.84  C 2.989583333333333 7.712  3.052083333333333 7.648  3.15625 7.648  Z M 4.578125 7.52  C 4.703125 7.52  4.776041666666666 7.589333333333332  4.796875 7.728  L 5.15625 11.76  L 4.796875 15.664  C 4.776041666666666 15.802666666666667  4.703125 15.872  4.578125 15.872  C 4.442708333333334 15.872  4.375 15.802666666666667  4.375 15.664  L 4.046875 11.76  L 4.375 7.728  C 4.375 7.589333333333332  4.442708333333334 7.52  4.578125 7.52  Z M 6.015625 7.776  C 6.161458333333334 7.776  6.244791666666668 7.856  6.265625 8.016  L 6.59375 11.76  L 6.265625 15.696  C 6.244791666666668 15.866666666666667  6.161458333333334 15.952  6.015625 15.952  C 5.953125 15.952  5.8984375 15.928  5.8515625 15.88  C 5.8046875 15.832  5.78125 15.770666666666667  5.78125 15.696  L 5.46875 11.76  L 5.78125 8.016  C 5.78125 7.952  5.8046875 7.896000000000001  5.8515625 7.848000000000001  C 5.8984375 7.800000000000001  5.953125 7.776  6.015625 7.776  Z M 7.65625 5.48  C 7.708333333333334 5.538666666666664  7.734375000000001 5.605333333333332  7.734375 5.68  L 8.0625 11.76  L 7.734375 15.696  C 7.734375000000001 15.770666666666667  7.708333333333334 15.837333333333332  7.65625 15.896  C 7.604166666666667 15.954666666666668  7.541666666666667 15.984  7.46875 15.984  C 7.302083333333334 15.984  7.208333333333334 15.888  7.1875 15.696  L 6.90625 11.76  L 7.1875 5.68  C 7.208333333333334 5.4879999999999995  7.302083333333334 5.3919999999999995  7.46875 5.3919999999999995  C 7.541666666666667 5.3919999999999995  7.604166666666667 5.421333333333331  7.65625 5.48  Z M 9.1171875 4.087999999999999  C 9.174479166666668 4.146666666666665  9.203125 4.218666666666664  9.203125 4.304  L 9.5 11.792  L 9.203125 15.696  C 9.203125 15.781333333333333  9.174479166666668 15.853333333333332  9.1171875 15.912  C 9.059895833333332 15.970666666666668  8.989583333333334 16  8.90625 16  C 8.71875 16  8.614583333333334 15.898666666666667  8.59375 15.696  L 8.34375 11.792  L 8.59375 4.304  C 8.614583333333334 4.101333333333333  8.71875 4  8.90625 4  C 8.989583333333334 4  9.059895833333332 4.029333333333332  9.1171875 4.087999999999999  Z M 10.625 3.4160000000000004  C 10.6875 3.4853333333333314  10.723958333333334 3.5679999999999996  10.734375 3.6639999999999997  L 11.015625 11.76  L 10.734375 15.632  C 10.713541666666668 15.856  10.598958333333336 15.968  10.390625 15.968  C 10.192708333333334 15.968  10.083333333333334 15.856  10.0625 15.632  L 9.8125 11.76  L 10.0625 3.6639999999999997  C 10.0625 3.5679999999999996  10.096354166666668 3.4853333333333314  10.1640625 3.4160000000000004  C 10.231770833333334 3.346666666666664  10.307291666666668 3.3119999999999976  10.390625 3.3119999999999994  C 10.484375 3.3119999999999976  10.5625 3.346666666666664  10.625 3.4160000000000004  Z M 13.6484375 3.3119999999999994  C 13.7265625 3.3866666666666667  13.765625 3.482666666666667  13.765625 3.5999999999999996  L 14 11.76  L 13.765625 15.584  C 13.765625 15.690666666666669  13.7265625 15.784  13.6484375 15.864  C 13.5703125 15.944  13.479166666666668 15.984  13.375 15.984  C 13.270833333333336 15.984  13.182291666666668 15.946666666666667  13.109375 15.872  C 13.036458333333334 15.797333333333333  12.994791666666668 15.701333333333332  12.984375 15.584  L 12.765625 11.76  L 12.984375 3.5999999999999996  C 12.984375000000002 3.482666666666667  13.023437500000002 3.3866666666666667  13.1015625 3.3119999999999994  C 13.1796875 3.237333333333332  13.270833333333336 3.1999999999999993  13.375 3.1999999999999993  C 13.479166666666668 3.1999999999999993  13.5703125 3.237333333333332  13.6484375 3.3119999999999994  Z M 15.1796875 3.5839999999999996  C 15.2578125 3.6693333333333324  15.302083333333334 3.776  15.3125 3.904  L 15.53125 11.776  L 15.3125 15.552  C 15.3125 15.669333333333332  15.270833333333334 15.770666666666667  15.1875 15.856  C 15.104166666666668 15.941333333333333  15.005208333333334 15.984  14.890625 15.984  C 14.776041666666668 15.984  14.677083333333336 15.941333333333333  14.59375 15.856  C 14.510416666666668 15.770666666666667  14.463541666666668 15.669333333333332  14.453125 15.552  L 14.265625 11.776  L 14.453125 3.904  C 14.463541666666668 3.776  14.510416666666668 3.6693333333333324  14.59375 3.5839999999999996  C 14.677083333333336 3.498666666666665  14.776041666666668 3.4559999999999977  14.890625 3.4559999999999995  C 15.005208333333334 3.4559999999999977  15.1015625 3.498666666666665  15.1796875 3.5839999999999996  Z M 18.40625 1.5519999999999996  L 18.625 11.776  L 18.40625 15.472  C 18.40625 15.610666666666669  18.359375 15.728  18.265625 15.824  C 18.171875 15.92  18.057291666666668 15.968  17.921875 15.968  C 17.786458333333336 15.968  17.671875 15.92  17.578125 15.824  C 17.484375 15.728  17.432291666666668 15.610666666666669  17.421875 15.472  L 17.328125 13.648  L 17.234375 11.776  L 17.421875 1.5999999999999996  L 17.421875 1.5519999999999996  C 17.442708333333336 1.3919999999999995  17.505208333333336 1.2639999999999993  17.609375 1.1679999999999993  C 17.703125 1.093333333333332  17.807291666666668 1.0559999999999992  17.921875 1.0559999999999992  C 18.005208333333336 1.0559999999999992  18.083333333333336 1.0826666666666647  18.15625 1.1359999999999992  C 18.302083333333336 1.221333333333332  18.38541666666667 1.3599999999999994  18.40625 1.5519999999999996  Z M 34.703125 8.256  C 35.567708333333336 9.141333333333332  36 10.213333333333331  36 11.472000000000001  C 36 12.72  35.567708333333336 13.783999999999999  34.703125 14.664  C 33.83854166666667 15.544  32.796875 15.984  31.578125 16  L 19.296875 16  C 19.161458333333336 15.962666666666667  19.046875 15.904  18.953125 15.808  C 18.859375 15.712  18.8125 15.594666666666669  18.8125 15.456  L 18.8125 1.0719999999999992  C 18.8125 0.8266666666666644  18.958333333333336 0.6506666666666643  19.25 0.5440000000000005  C 20.135416666666668 0.1813333333333329  21.078125 0  22.078125 0  C 24.109375 0  25.86979166666667 0.7013333333333325  27.359375 2.103999999999999  C 28.848958333333336 3.506666666666666  29.682291666666668 5.231999999999999  29.859375 7.279999999999999  C 30.411458333333336 7.045333333333332  30.984375 6.928000000000001  31.578125 6.928000000000001  C 32.796875 6.928000000000001  33.83854166666667 7.370666666666667  34.703125 8.256  Z " fill-rule="nonzero" fill="#ffffff" stroke="none" transform="matrix(1 0 0 1 1271 245 )" />
  </g>
</svg>